<mxfile host="app.diagrams.net" modified="2024-01-10T21:01:53.031Z" agent="Mozilla/5.0 (Windows NT 10.0; Win64; x64) AppleWebKit/537.36 (KHTML, like Gecko) Chrome/120.0.0.0 Safari/537.36" etag="HK58SW_pWN026qm_rnWm" version="22.1.18" type="github">
  <diagram name="Page-1" id="74e2e168-ea6b-b213-b513-2b3c1d86103e">
    <mxGraphModel dx="1434" dy="760" grid="1" gridSize="10" guides="1" tooltips="1" connect="1" arrows="1" fold="1" page="1" pageScale="1" pageWidth="1100" pageHeight="850" background="none" math="0" shadow="0">
      <root>
        <mxCell id="0" />
        <mxCell id="1" parent="0" />
        <mxCell id="vWC2WC9_L9bKBSMqEms9-1" value="Process To Produce Portfolio Company Reporting" style="swimlane;childLayout=stackLayout;resizeParent=1;resizeParentMax=0;horizontal=1;startSize=20;horizontalStack=0;html=1;" vertex="1" parent="1">
          <mxGeometry width="1400" height="560" as="geometry" />
        </mxCell>
        <mxCell id="vWC2WC9_L9bKBSMqEms9-2" value="Private Equity&amp;nbsp;" style="swimlane;startSize=20;horizontal=0;html=1;" vertex="1" parent="vWC2WC9_L9bKBSMqEms9-1">
          <mxGeometry y="20" width="1400" height="540" as="geometry" />
        </mxCell>
        <mxCell id="vWC2WC9_L9bKBSMqEms9-7" value="" style="edgeStyle=orthogonalEdgeStyle;rounded=0;orthogonalLoop=1;jettySize=auto;html=1;" edge="1" parent="vWC2WC9_L9bKBSMqEms9-2" source="vWC2WC9_L9bKBSMqEms9-5" target="vWC2WC9_L9bKBSMqEms9-6">
          <mxGeometry relative="1" as="geometry" />
        </mxCell>
        <mxCell id="vWC2WC9_L9bKBSMqEms9-5" value="Select and modify fields for the import template" style="rounded=1;whiteSpace=wrap;html=1;" vertex="1" parent="vWC2WC9_L9bKBSMqEms9-2">
          <mxGeometry x="210" y="80" width="120" height="60" as="geometry" />
        </mxCell>
        <mxCell id="vWC2WC9_L9bKBSMqEms9-34" value="" style="edgeStyle=orthogonalEdgeStyle;rounded=0;orthogonalLoop=1;jettySize=auto;html=1;" edge="1" parent="vWC2WC9_L9bKBSMqEms9-2" source="vWC2WC9_L9bKBSMqEms9-6" target="vWC2WC9_L9bKBSMqEms9-8">
          <mxGeometry relative="1" as="geometry" />
        </mxCell>
        <mxCell id="vWC2WC9_L9bKBSMqEms9-6" value="Confirm and save the import template" style="rounded=1;whiteSpace=wrap;html=1;" vertex="1" parent="vWC2WC9_L9bKBSMqEms9-2">
          <mxGeometry x="360" y="80" width="120" height="60" as="geometry" />
        </mxCell>
        <mxCell id="vWC2WC9_L9bKBSMqEms9-35" value="" style="edgeStyle=orthogonalEdgeStyle;rounded=0;orthogonalLoop=1;jettySize=auto;html=1;" edge="1" parent="vWC2WC9_L9bKBSMqEms9-2" source="vWC2WC9_L9bKBSMqEms9-23" target="vWC2WC9_L9bKBSMqEms9-5">
          <mxGeometry relative="1" as="geometry" />
        </mxCell>
        <mxCell id="vWC2WC9_L9bKBSMqEms9-23" value="Select prebuilt template" style="rounded=1;whiteSpace=wrap;html=1;" vertex="1" parent="vWC2WC9_L9bKBSMqEms9-2">
          <mxGeometry x="50" y="80" width="120" height="60" as="geometry" />
        </mxCell>
        <mxCell id="vWC2WC9_L9bKBSMqEms9-29" value="Review and modify the report" style="whiteSpace=wrap;html=1;rounded=1;" vertex="1" parent="vWC2WC9_L9bKBSMqEms9-2">
          <mxGeometry x="1050" y="80" width="120" height="60" as="geometry" />
        </mxCell>
        <mxCell id="vWC2WC9_L9bKBSMqEms9-31" value="Submit&amp;nbsp;" style="whiteSpace=wrap;html=1;rounded=1;" vertex="1" parent="vWC2WC9_L9bKBSMqEms9-2">
          <mxGeometry x="1260" y="80" width="120" height="60" as="geometry" />
        </mxCell>
        <mxCell id="vWC2WC9_L9bKBSMqEms9-32" value="" style="edgeStyle=orthogonalEdgeStyle;rounded=0;orthogonalLoop=1;jettySize=auto;html=1;" edge="1" parent="vWC2WC9_L9bKBSMqEms9-2" source="vWC2WC9_L9bKBSMqEms9-29" target="vWC2WC9_L9bKBSMqEms9-31">
          <mxGeometry relative="1" as="geometry" />
        </mxCell>
        <mxCell id="vWC2WC9_L9bKBSMqEms9-3" value="Portfolio Company" style="swimlane;startSize=20;horizontal=0;html=1;" vertex="1" parent="vWC2WC9_L9bKBSMqEms9-2">
          <mxGeometry y="320" width="1400" height="220" as="geometry" />
        </mxCell>
        <mxCell id="vWC2WC9_L9bKBSMqEms9-13" value="" style="edgeStyle=orthogonalEdgeStyle;rounded=0;orthogonalLoop=1;jettySize=auto;html=1;" edge="1" parent="vWC2WC9_L9bKBSMqEms9-3" source="vWC2WC9_L9bKBSMqEms9-10" target="vWC2WC9_L9bKBSMqEms9-12">
          <mxGeometry relative="1" as="geometry" />
        </mxCell>
        <mxCell id="vWC2WC9_L9bKBSMqEms9-10" value="Get the import template" style="whiteSpace=wrap;html=1;rounded=1;" vertex="1" parent="vWC2WC9_L9bKBSMqEms9-3">
          <mxGeometry x="480" y="70" width="120" height="60" as="geometry" />
        </mxCell>
        <mxCell id="vWC2WC9_L9bKBSMqEms9-15" value="" style="edgeStyle=orthogonalEdgeStyle;rounded=0;orthogonalLoop=1;jettySize=auto;html=1;" edge="1" parent="vWC2WC9_L9bKBSMqEms9-3" source="vWC2WC9_L9bKBSMqEms9-12" target="vWC2WC9_L9bKBSMqEms9-14">
          <mxGeometry relative="1" as="geometry" />
        </mxCell>
        <mxCell id="vWC2WC9_L9bKBSMqEms9-12" value="Get the accountancy data" style="whiteSpace=wrap;html=1;rounded=1;" vertex="1" parent="vWC2WC9_L9bKBSMqEms9-3">
          <mxGeometry x="650" y="70" width="120" height="60" as="geometry" />
        </mxCell>
        <mxCell id="vWC2WC9_L9bKBSMqEms9-27" value="" style="edgeStyle=orthogonalEdgeStyle;rounded=0;orthogonalLoop=1;jettySize=auto;html=1;" edge="1" parent="vWC2WC9_L9bKBSMqEms9-3" source="vWC2WC9_L9bKBSMqEms9-14" target="vWC2WC9_L9bKBSMqEms9-26">
          <mxGeometry relative="1" as="geometry" />
        </mxCell>
        <mxCell id="vWC2WC9_L9bKBSMqEms9-14" value="Run both through the AI model asking for data mapping" style="whiteSpace=wrap;html=1;rounded=1;" vertex="1" parent="vWC2WC9_L9bKBSMqEms9-3">
          <mxGeometry x="840" y="70" width="120" height="60" as="geometry" />
        </mxCell>
        <mxCell id="vWC2WC9_L9bKBSMqEms9-18" value="These steps will be run by the system not manually" style="text;html=1;strokeColor=none;fillColor=none;align=center;verticalAlign=middle;whiteSpace=wrap;rounded=0;" vertex="1" parent="vWC2WC9_L9bKBSMqEms9-3">
          <mxGeometry x="480" y="25" width="280" height="30" as="geometry" />
        </mxCell>
        <mxCell id="vWC2WC9_L9bKBSMqEms9-26" value="Review , modify and version" style="whiteSpace=wrap;html=1;rounded=1;" vertex="1" parent="vWC2WC9_L9bKBSMqEms9-3">
          <mxGeometry x="1050" y="120" width="120" height="60" as="geometry" />
        </mxCell>
        <mxCell id="vWC2WC9_L9bKBSMqEms9-16" value="Produce report" style="whiteSpace=wrap;html=1;rounded=1;" vertex="1" parent="vWC2WC9_L9bKBSMqEms9-3">
          <mxGeometry x="1050" y="10" width="120" height="60" as="geometry" />
        </mxCell>
        <mxCell id="vWC2WC9_L9bKBSMqEms9-28" value="" style="edgeStyle=orthogonalEdgeStyle;rounded=0;orthogonalLoop=1;jettySize=auto;html=1;" edge="1" parent="vWC2WC9_L9bKBSMqEms9-3" source="vWC2WC9_L9bKBSMqEms9-26" target="vWC2WC9_L9bKBSMqEms9-16">
          <mxGeometry relative="1" as="geometry" />
        </mxCell>
        <mxCell id="vWC2WC9_L9bKBSMqEms9-8" value="Trigger the report" style="whiteSpace=wrap;html=1;rounded=1;" vertex="1" parent="vWC2WC9_L9bKBSMqEms9-3">
          <mxGeometry x="300" y="70" width="120" height="60" as="geometry" />
        </mxCell>
        <mxCell id="vWC2WC9_L9bKBSMqEms9-11" value="" style="edgeStyle=orthogonalEdgeStyle;rounded=0;orthogonalLoop=1;jettySize=auto;html=1;" edge="1" parent="vWC2WC9_L9bKBSMqEms9-3" source="vWC2WC9_L9bKBSMqEms9-8" target="vWC2WC9_L9bKBSMqEms9-10">
          <mxGeometry relative="1" as="geometry" />
        </mxCell>
        <mxCell id="vWC2WC9_L9bKBSMqEms9-30" value="" style="edgeStyle=orthogonalEdgeStyle;rounded=0;orthogonalLoop=1;jettySize=auto;html=1;" edge="1" parent="vWC2WC9_L9bKBSMqEms9-2" source="vWC2WC9_L9bKBSMqEms9-16" target="vWC2WC9_L9bKBSMqEms9-29">
          <mxGeometry relative="1" as="geometry" />
        </mxCell>
      </root>
    </mxGraphModel>
  </diagram>
</mxfile>
